<svg width="45" height="32" viewBox="0 0 45 32" fill="none" xmlns="http://www.w3.org/2000/svg">
<path d="M44.999 5.78667C45.0031 5.26221 44.8526 4.74708 44.5644 4.29943C44.2761 3.85179 43.8617 3.48946 43.3678 3.25333C42.8996 3.01495 42.3697 2.90722 41.8396 2.94261C41.3095 2.97801 40.8008 3.15509 40.3725 3.45333L33.7492 7.46667V2.66667C33.7492 1.95942 33.4529 1.28115 32.9255 0.781048C32.398 0.280951 31.6827 0 30.9368 0H5.62487C4.13306 0 2.70235 0.561903 1.64749 1.5621C0.592619 2.56229 0 3.91885 0 5.33333V26.6667C0 28.0812 0.592619 29.4377 1.64749 30.4379C2.70235 31.4381 4.13306 32 5.62487 32H30.9368C31.6827 32 32.398 31.719 32.9255 31.219C33.4529 30.7189 33.7492 30.0406 33.7492 29.3333V24.5333L40.2741 28.5333C40.7106 28.8502 41.2328 29.0435 41.7803 29.0907C42.3278 29.1379 42.8782 29.0371 43.3678 28.8C43.8704 28.5599 44.2906 28.1892 44.5795 27.7312C44.8683 27.2732 45.0138 26.7468 44.999 26.2133V5.78667ZM42.0881 26.36C42.0037 26.36 41.9334 26.36 41.8209 26.28L30.9368 19.6933V29.3333H5.62487C4.87897 29.3333 4.16361 29.0524 3.63618 28.5523C3.10874 28.0522 2.81244 27.3739 2.81244 26.6667V5.33333C2.81244 4.62609 3.10874 3.94781 3.63618 3.44772C4.16361 2.94762 4.87897 2.66667 5.62487 2.66667H30.9368V12.3067L41.9053 5.64C41.9318 5.62158 41.9638 5.61166 41.9967 5.61166C42.0296 5.61166 42.0616 5.62158 42.0881 5.64C42.1189 5.6513 42.145 5.67163 42.1627 5.69801C42.1804 5.7244 42.1888 5.75546 42.1865 5.78667V26.2133C42.1888 26.2445 42.1804 26.2756 42.1627 26.302C42.145 26.3284 42.1189 26.3487 42.0881 26.36Z" fill="black"/>
</svg>
