<svg width="29" height="22" viewBox="0 0 29 22" fill="none" xmlns="http://www.w3.org/2000/svg">
<path d="M10.1578 4.92981H13.0229V15.5006C13.0229 15.6381 13.1624 15.7506 13.333 15.7506H15.6592C15.8298 15.7506 15.9694 15.6381 15.9694 15.5006V4.92981H18.8422C19.102 4.92981 19.2455 4.68921 19.0865 4.52672L14.7443 0.0959121C14.7152 0.0660345 14.6782 0.0418712 14.6358 0.0252537C14.5935 0.00863609 14.5471 0 14.5 0C14.4529 0 14.4065 0.00863609 14.3642 0.0252537C14.3218 0.0418712 14.2848 0.0660345 14.2557 0.0959121L9.9135 4.5236C9.75455 4.68921 9.89799 4.92981 10.1578 4.92981ZM28.6898 14.5632H26.3636C26.193 14.5632 26.0535 14.6757 26.0535 14.8132V19.6252H2.94652V14.8132C2.94652 14.6757 2.80695 14.5632 2.63636 14.5632H0.31016C0.139572 14.5632 0 14.6757 0 14.8132V21.0001C0 21.5532 0.554412 22 1.24064 22H27.7594C28.4456 22 29 21.5532 29 21.0001V14.8132C29 14.6757 28.8604 14.5632 28.6898 14.5632Z" fill="black"/>
</svg>
